<svg width="74" height="147" viewBox="0 0 74 147" fill="none" xmlns="http://www.w3.org/2000/svg">
<path d="M65 88.4383V89.4503H63.999V88.4383H65Z" fill="#ffffe3ff"/>
<path d="M65 87.6421V88.6541H63.999V87.6421H65Z" fill="#ffffe3ff"/>
<path d="M65 86.8459V87.8579H63.999V86.8459H65Z" fill="#ffffe3ff"/>
<path d="M65 86.0497V87.0617H63.999V86.0497H65Z" fill="#ffffe3ff"/>
<path d="M62.063 85.1239H61.271V82.0439H62.063V85.1239Z" fill="#ffffe3ff"/>
<path d="M62.063 82.1363H61.271V79.0563H62.063V82.1363Z" fill="#ffffe3ff"/>
<path d="M62.063 79.1487H61.271V76.0687H62.063V79.1487Z" fill="#ffffe3ff"/>
<path d="M65 74.1396V75.1516H63.999V74.1396H65Z" fill="#ffffe3ff"/>
<path d="M65 73.3434V74.3554H63.999V73.3434H65Z" fill="#ffffe3ff"/>
<path d="M65 72.5472V73.5592H63.999V72.5472H65Z" fill="#ffffe3ff"/>
<path d="M65 71.7509V72.7629H63.999V71.7509H65Z" fill="#ffffe3ff"/>
<path d="M65 69.8792V70.8912H63.999V69.8792H65Z" fill="#ffffe3ff"/>
<path d="M62.063 70.029H61.271V66.949H62.063V70.029Z" fill="#ffffe3ff"/>
<path d="M65 66.0954V67.1074H63.999V66.0954H65Z" fill="#ffffe3ff"/>
<path d="M65 65.2992V66.3112H63.999V65.2992H65Z" fill="#ffffe3ff"/>
<path d="M62.063 64.3735H61.271V61.2935H62.063V64.3735Z" fill="#ffffe3ff"/>
<path d="M65 60.4399V61.4519H63.999V60.4399H65Z" fill="#ffffe3ff"/>
<path d="M62.063 60.5896H61.271V57.5096H62.063V60.5896Z" fill="#ffffe3ff"/>
<path d="M62.063 57.602H61.271V54.522H62.063V57.602Z" fill="#ffffe3ff"/>
<path d="M65 51.5174V52.5294H63.999V51.5174H65Z" fill="#ffffe3ff"/>
<path d="M62.063 51.6672H61.271V48.5872H62.063V51.6672Z" fill="#ffffe3ff"/>
<path d="M62.063 48.6796H61.271V45.5996H62.063V48.6796Z" fill="#ffffe3ff"/>
<path d="M65 44.7459V45.7579H63.999V44.7459H65Z" fill="#ffffe3ff"/>
<path d="M65 42.8742V43.8862H63.999V42.8742H65Z" fill="#ffffe3ff"/>
<path d="M65 42.078V43.09H63.999V42.078H65Z" fill="#ffffe3ff"/>
<path d="M62.063 41.1523H61.271V38.0723H62.063V41.1523Z" fill="#ffffe3ff"/>
<path d="M65 37.2187V38.2307H63.999V37.2187H65Z" fill="#ffffe3ff"/>
<path d="M65 36.4225V37.4345H63.999V36.4225H65Z" fill="#ffffe3ff"/>
<path d="M62.063 35.4968H61.271V32.4168H62.063V35.4968Z" fill="#ffffe3ff"/>
<path d="M62.063 32.5091H61.271V29.4291H62.063V32.5091Z" fill="#ffffe3ff"/>
<path d="M62.063 29.5215H61.271V26.4415H62.063V29.5215Z" fill="#ffffe3ff"/>
<path d="M65 24.5124V25.5244H63.999V24.5124H65Z" fill="#ffffe3ff"/>
<path d="M62.063 24.6622H61.271V21.5822H62.063V24.6622Z" fill="#ffffe3ff"/>
<path d="M65 20.7286V21.7406H63.999V20.7286H65Z" fill="#ffffe3ff"/>
<path d="M65 18.8568V19.8688H63.999V18.8568H65Z" fill="#ffffe3ff"/>
<path d="M62.063 19.0066H61.271V15.9266H62.063V19.0066Z" fill="#ffffe3ff"/>
<path d="M65 13.9975V15.0095H63.999V13.9975H65Z" fill="#ffffe3ff"/>
<path d="M65 13.2013V14.2133H63.999V13.2013H65Z" fill="#ffffe3ff"/>
<path d="M65 12.4051V13.4171H63.999V12.4051H65Z" fill="#ffffe3ff"/>
<path d="M62.063 11.4794H61.271V8.39937H62.063V11.4794Z" fill="#ffffe3ff"/>
<path d="M65 7.54575V8.55775H63.999V7.54575H65Z" fill="#ffffe3ff"/>
<path d="M62.063 7.69555H61.271V4.61555H62.063V7.69555Z" fill="#ffffe3ff"/>
<path d="M62.063 4.70793H61.271V1.62793H62.063V4.70793Z" fill="#ffffe3ff"/>
<path d="M64 90.5C64 90.7667 63.8934 91.0222 63.7041 91.21L7.44531 147H0.585938L26.293 121.293L26.3662 121.227C26.5442 121.081 26.7679 121 27 121H30.8232L62 90.083V0H64V90.5Z" fill="#ffffe3ff"/>
<path d="M69 90C69 90.2638 68.8957 90.5168 68.71 90.7041L12.8828 147H10.0664L67 89.5879V0H69V90Z" fill="#ffffe3ff"/>
<path d="M74 90C74 90.2623 73.8968 90.5141 73.7129 90.7012L18.3525 147H15.5479L72 89.5898V0H74V90Z" fill="#ffffe3ff"/>
</svg>
